<mxfile host="app.diagrams.net" modified="2024-05-08T22:52:27.664Z" agent="Mozilla/5.0 (Windows NT 10.0; Win64; x64) AppleWebKit/537.36 (KHTML, like Gecko) Chrome/124.0.0.0 Safari/537.36" version="24.0.8" etag="KtI99sCEJdk3FCBK1HeZ" type="github">
  <diagram name="PÃ¡gina-1" id="qDjyMP0n4LcUW1B3ZI65">
    <mxGraphModel>
      <root>
        <mxCell id="0" />
        <mxCell id="1" parent="0" />
      </root>
    </mxGraphModel>
  </diagram>
</mxfile>
